<svg width="360" height="360" viewBox="0 0 360 360" fill="none" xmlns="http://www.w3.org/2000/svg">
<path d="M52.559 199.816C44.5297 192.95 33.8239 182.4 28.122 176.543C25.4067 178.482 0 201.523 0 201.523C11.753 217.387 30.6432 236.239 53.3348 247.914C91.697 266.067 130.214 271.42 155.35 233.95C178.584 188.102 125.288 162.346 97.7869 137.56C95.7311 135.388 93.6753 132.129 93.6753 129.996C91.4643 121.23 98.2523 114.946 107.251 114.635C118.112 114.325 124.319 117.739 137.119 124.953C152.712 134.263 159.733 144.154 169.275 156.644C175.21 165.022 194.371 181.702 199.181 184.3C223.812 202.648 265.045 217.542 293.05 204.859C310.854 194.579 324.857 178.676 324.469 159.088C321.095 121.967 284.4 107.421 261.088 85.1947C257.015 81.0443 256.395 77.243 256.783 72.0065C257.985 63.3953 269.583 61.2619 277.147 62.5032C295.106 65.3736 319.776 85.9317 330.288 100.128L360 73.0538C336.882 45.436 284.129 7.73321 238.358 25.6537C212.369 38.7644 200.927 61.5722 210.43 87.716C221.679 111.61 238.979 120.144 256.201 135.038C256.201 135.038 272.492 146.675 273.268 151.718C275.867 164.091 265.239 171.578 253.098 167.621C238.164 163.393 218.925 150.864 208.103 140.081C204.03 135.698 196.543 126.466 193.052 121.656C177.304 101.952 146.195 81.3546 119.664 76.0793C96.1577 68.8646 62.9932 75.6914 50.2317 100.128C35.6858 122.432 46.5079 144.309 60.3168 159.863C68.0358 167.233 84.3271 181.042 92.8995 187.403C92.8995 187.403 109.191 199.04 109.967 204.083C112.565 216.456 101.937 223.943 89.7964 219.986C73.4662 213.741 63.0708 208.35 52.559 199.816Z" fill="#DE5C2A"/>
<path d="M52.4037 320.964C49.9604 320.964 47.771 320.567 45.8354 319.774C43.8999 318.981 42.3451 317.807 41.171 316.252C40.0287 314.697 39.4259 312.825 39.3624 310.636H48.0249C48.1518 311.873 48.5802 312.825 49.31 313.491C50.0398 314.126 50.9917 314.443 52.1657 314.443C53.3715 314.443 54.3234 314.174 55.0215 313.634C55.7196 313.063 56.0686 312.286 56.0686 311.302C56.0686 310.477 55.783 309.795 55.2119 309.255C54.6724 308.716 53.9902 308.272 53.1652 307.923C52.372 307.574 51.2297 307.177 49.7383 306.733C47.5806 306.066 45.8196 305.4 44.4552 304.734C43.0907 304.067 41.9167 303.084 40.9331 301.783C39.9494 300.482 39.4576 298.784 39.4576 296.69C39.4576 293.58 40.584 291.153 42.8369 289.408C45.0898 287.631 48.0249 286.742 51.6422 286.742C55.3229 286.742 58.2897 287.631 60.5426 289.408C62.7955 291.153 64.0013 293.596 64.1599 296.738H55.3547C55.2912 295.659 54.8946 294.818 54.1648 294.215C53.4349 293.58 52.4989 293.263 51.3566 293.263C50.3729 293.263 49.5797 293.533 48.9768 294.072C48.3739 294.58 48.0725 295.326 48.0725 296.309C48.0725 297.388 48.5802 298.229 49.5955 298.832C50.6109 299.435 52.1974 300.085 54.3551 300.783C56.5128 301.513 58.258 302.211 59.5907 302.878C60.9551 303.544 62.1292 304.512 63.1128 305.781C64.0965 307.05 64.5883 308.684 64.5883 310.683C64.5883 312.587 64.0965 314.316 63.1128 315.871C62.1609 317.426 60.7647 318.664 58.9244 319.584C57.084 320.504 54.9104 320.964 52.4037 320.964ZM107.721 294.072L100.534 320.631H91.5388L87.3503 303.401L83.0191 320.631H74.071L66.8364 294.072H74.9754L78.7354 313.063L83.2095 294.072H91.8244L96.346 312.968L100.058 294.072H107.721ZM135.861 306.923C135.861 307.685 135.813 308.478 135.718 309.303H117.298C117.425 310.953 117.949 312.222 118.869 313.111C119.821 313.967 120.979 314.396 122.343 314.396C124.374 314.396 125.786 313.539 126.579 311.826H135.242C134.798 313.571 133.989 315.141 132.815 316.538C131.672 317.934 130.229 319.028 128.483 319.822C126.738 320.615 124.787 321.012 122.629 321.012C120.027 321.012 117.711 320.456 115.68 319.346C113.649 318.235 112.063 316.649 110.92 314.586C109.778 312.524 109.207 310.112 109.207 307.352C109.207 304.591 109.762 302.179 110.873 300.117C112.015 298.054 113.602 296.468 115.632 295.357C117.663 294.247 119.995 293.692 122.629 293.692C125.199 293.692 127.484 294.231 129.483 295.31C131.482 296.389 133.037 297.928 134.147 299.927C135.29 301.926 135.861 304.258 135.861 306.923ZM127.531 304.781C127.531 303.385 127.055 302.275 126.104 301.45C125.152 300.625 123.962 300.212 122.534 300.212C121.169 300.212 120.011 300.609 119.059 301.402C118.139 302.195 117.568 303.322 117.346 304.781H127.531ZM165.19 306.923C165.19 307.685 165.142 308.478 165.047 309.303H146.627C146.754 310.953 147.278 312.222 148.198 313.111C149.15 313.967 150.308 314.396 151.673 314.396C153.703 314.396 155.115 313.539 155.909 311.826H164.571C164.127 313.571 163.318 315.141 162.144 316.538C161.001 317.934 159.558 319.028 157.813 319.822C156.067 320.615 154.116 321.012 151.958 321.012C149.356 321.012 147.04 320.456 145.009 319.346C142.978 318.235 141.392 316.649 140.25 314.586C139.107 312.524 138.536 310.112 138.536 307.352C138.536 304.591 139.091 302.179 140.202 300.117C141.344 298.054 142.931 296.468 144.962 295.357C146.992 294.247 149.325 293.692 151.958 293.692C154.528 293.692 156.813 294.231 158.812 295.31C160.811 296.389 162.366 297.928 163.476 299.927C164.619 301.926 165.19 304.258 165.19 306.923ZM156.861 304.781C156.861 303.385 156.385 302.275 155.433 301.45C154.481 300.625 153.291 300.212 151.863 300.212C150.499 300.212 149.34 300.609 148.388 301.402C147.468 302.195 146.897 303.322 146.675 304.781H156.861ZM184.286 313.729V320.631H180.145C177.194 320.631 174.894 319.917 173.244 318.489C171.594 317.029 170.769 314.665 170.769 311.397V300.831H167.532V294.072H170.769V287.599H178.908V294.072H184.238V300.831H178.908V311.492C178.908 312.286 179.098 312.857 179.479 313.206C179.859 313.555 180.494 313.729 181.383 313.729H184.286ZM200.909 320.964C198.466 320.964 196.276 320.567 194.341 319.774C192.405 318.981 190.85 317.807 189.676 316.252C188.534 314.697 187.931 312.825 187.868 310.636H196.53C196.657 311.873 197.085 312.825 197.815 313.491C198.545 314.126 199.497 314.443 200.671 314.443C201.877 314.443 202.829 314.174 203.527 313.634C204.225 313.063 204.574 312.286 204.574 311.302C204.574 310.477 204.288 309.795 203.717 309.255C203.178 308.716 202.495 308.272 201.67 307.923C200.877 307.574 199.735 307.177 198.243 306.733C196.086 306.066 194.325 305.4 192.96 304.734C191.596 304.067 190.422 303.084 189.438 301.783C188.455 300.482 187.963 298.784 187.963 296.69C187.963 293.58 189.089 291.153 191.342 289.408C193.595 287.631 196.53 286.742 200.147 286.742C203.828 286.742 206.795 287.631 209.048 289.408C211.301 291.153 212.506 293.596 212.665 296.738H203.86C203.796 295.659 203.4 294.818 202.67 294.215C201.94 293.58 201.004 293.263 199.862 293.263C198.878 293.263 198.085 293.533 197.482 294.072C196.879 294.58 196.578 295.326 196.578 296.309C196.578 297.388 197.085 298.229 198.101 298.832C199.116 299.435 200.703 300.085 202.86 300.783C205.018 301.513 206.763 302.211 208.096 302.878C209.46 303.544 210.634 304.512 211.618 305.781C212.602 307.05 213.093 308.684 213.093 310.683C213.093 312.587 212.602 314.316 211.618 315.871C210.666 317.426 209.27 318.664 207.429 319.584C205.589 320.504 203.416 320.964 200.909 320.964ZM226.241 297.832C227.034 296.595 228.129 295.595 229.525 294.834C230.921 294.072 232.555 293.692 234.428 293.692C236.617 293.692 238.6 294.247 240.377 295.357C242.154 296.468 243.55 298.054 244.566 300.117C245.613 302.179 246.136 304.575 246.136 307.304C246.136 310.033 245.613 312.444 244.566 314.539C243.55 316.601 242.154 318.203 240.377 319.346C238.6 320.456 236.617 321.012 234.428 321.012C232.587 321.012 230.953 320.631 229.525 319.869C228.129 319.108 227.034 318.124 226.241 316.918V333.291H218.102V294.072H226.241V297.832ZM237.854 307.304C237.854 305.273 237.283 303.687 236.141 302.544C235.03 301.37 233.65 300.783 232 300.783C230.382 300.783 229.002 301.37 227.859 302.544C226.749 303.718 226.193 305.321 226.193 307.352C226.193 309.382 226.749 310.985 227.859 312.159C229.002 313.333 230.382 313.92 232 313.92C233.618 313.92 234.999 313.333 236.141 312.159C237.283 310.953 237.854 309.335 237.854 307.304ZM262.495 321.012C259.894 321.012 257.545 320.456 255.451 319.346C253.389 318.235 251.755 316.649 250.549 314.586C249.375 312.524 248.788 310.112 248.788 307.352C248.788 304.623 249.391 302.227 250.596 300.165C251.802 298.07 253.452 296.468 255.546 295.357C257.641 294.247 259.989 293.692 262.591 293.692C265.193 293.692 267.541 294.247 269.635 295.357C271.729 296.468 273.379 298.07 274.585 300.165C275.791 302.227 276.394 304.623 276.394 307.352C276.394 310.08 275.775 312.492 274.537 314.586C273.331 316.649 271.666 318.235 269.54 319.346C267.445 320.456 265.097 321.012 262.495 321.012ZM262.495 313.967C264.05 313.967 265.367 313.396 266.446 312.254C267.557 311.112 268.112 309.478 268.112 307.352C268.112 305.226 267.572 303.591 266.494 302.449C265.446 301.307 264.145 300.736 262.591 300.736C261.004 300.736 259.687 301.307 258.64 302.449C257.593 303.56 257.07 305.194 257.07 307.352C257.07 309.478 257.577 311.112 258.593 312.254C259.64 313.396 260.941 313.967 262.495 313.967ZM295.514 313.729V320.631H291.373C288.422 320.631 286.121 319.917 284.471 318.489C282.821 317.029 281.996 314.665 281.996 311.397V300.831H278.76V294.072H281.996V287.599H290.135V294.072H295.466V300.831H290.135V311.492C290.135 312.286 290.326 312.857 290.707 313.206C291.087 313.555 291.722 313.729 292.61 313.729H295.514ZM310.852 321.012C308.535 321.012 306.473 320.615 304.664 319.822C302.855 319.028 301.428 317.95 300.38 316.585C299.333 315.189 298.746 313.634 298.619 311.921H306.663C306.758 312.841 307.187 313.587 307.948 314.158C308.71 314.729 309.646 315.015 310.756 315.015C311.772 315.015 312.549 314.824 313.089 314.443C313.66 314.031 313.945 313.507 313.945 312.873C313.945 312.111 313.549 311.556 312.755 311.207C311.962 310.826 310.677 310.414 308.9 309.969C306.996 309.525 305.41 309.065 304.141 308.589C302.871 308.081 301.777 307.304 300.856 306.257C299.936 305.178 299.476 303.734 299.476 301.926C299.476 300.403 299.889 299.022 300.714 297.785C301.57 296.516 302.808 295.516 304.426 294.786C306.076 294.056 308.028 293.692 310.28 293.692C313.612 293.692 316.23 294.517 318.134 296.167C320.069 297.817 321.18 300.006 321.465 302.735H313.945C313.818 301.815 313.406 301.085 312.708 300.545C312.041 300.006 311.153 299.736 310.042 299.736C309.091 299.736 308.361 299.927 307.853 300.307C307.345 300.656 307.091 301.148 307.091 301.783C307.091 302.544 307.488 303.116 308.281 303.496C309.106 303.877 310.376 304.258 312.089 304.639C314.056 305.146 315.659 305.654 316.896 306.162C318.134 306.638 319.213 307.431 320.133 308.541C321.085 309.62 321.577 311.08 321.608 312.92C321.608 314.475 321.164 315.871 320.276 317.109C319.419 318.315 318.165 319.266 316.515 319.965C314.897 320.663 313.009 321.012 310.852 321.012Z" fill="#DE5C2A"/>
</svg>
