<svg width="121" height="145" viewBox="0 0 121 145" fill="none" xmlns="http://www.w3.org/2000/svg">
<path d="M60.2466 0.781738C72.531 0.781738 84.8154 5.43364 94.188 14.7349C101.013 21.5077 105.349 29.8134 107.205 38.5347C103.57 36.2716 99.5281 34.6022 95.2134 33.6616C93.3668 29.3655 90.6777 25.3395 87.144 21.8325C79.7209 14.4659 69.9838 10.7817 60.2466 10.7817C50.5095 10.7818 40.7722 14.465 33.3491 21.8315C18.5455 36.5226 18.5455 60.3104 33.3491 75.0015L60.2466 101.693V101.747L65.6081 107.19C67.8726 109.442 70.2466 115.452 70.2466 118.646V131.817C70.2465 143.281 56.4852 149.133 48.228 141.18L41.5679 134.765L41.5503 134.761L17.8198 111.887C6.28728 100.771 0.430766 86.2534 0.250488 71.6841L0.246582 70.9907C0.246582 63.2751 2.87818 56.1737 7.29248 50.5356C7.51651 56.0917 8.61909 61.6196 10.606 66.894C10.3692 68.2236 10.2466 69.5931 10.2466 70.9907L10.2505 71.5913C10.4062 83.5293 15.1974 95.469 24.7603 104.687L53.4702 132.361C56.0105 134.809 60.2466 133.009 60.2466 129.481V120.824C60.2466 117.63 58.9731 114.567 56.7085 112.315L37.7192 93.4292C37.6995 93.4096 37.681 93.3886 37.6616 93.3687L26.3052 82.0991C19.912 75.7545 15.6997 68.0652 13.6675 59.9487L13.481 59.1694C13.4744 59.1413 13.4679 59.1126 13.4614 59.0845C13.4111 58.8661 13.3631 58.6472 13.3159 58.4282C13.2999 58.354 13.2837 58.2798 13.2681 58.2056C13.112 57.4645 12.9742 56.7205 12.854 55.9741C12.8391 55.882 12.8234 55.79 12.8091 55.6978C12.78 55.5104 12.7529 55.3229 12.7261 55.1353C12.7031 54.9745 12.681 54.8137 12.6597 54.6528C12.6373 54.4836 12.6148 54.3144 12.5942 54.145C12.5744 53.9821 12.5577 53.8188 12.5396 53.6558C12.5071 53.3627 12.4767 53.0694 12.4497 52.7759C12.4335 52.6007 12.4161 52.4258 12.4019 52.2505C12.387 52.0663 12.3746 51.882 12.3618 51.6978C12.3496 51.522 12.3389 51.3462 12.3286 51.1704C12.3205 51.0311 12.312 50.8918 12.3052 50.7524C12.2938 50.523 12.2849 50.2935 12.2769 50.064C12.2734 49.9647 12.2689 49.8654 12.2661 49.7661C12.2565 49.4293 12.251 49.0923 12.2485 48.7554C12.2479 48.6701 12.2487 48.5848 12.2485 48.4995C12.248 48.229 12.2493 47.9585 12.2534 47.688C12.2548 47.5962 12.2564 47.5044 12.2583 47.4126C12.2635 47.1638 12.2716 46.9152 12.2808 46.6665C12.2849 46.5539 12.2875 46.4412 12.2925 46.3286C12.3067 46.0036 12.3243 45.6787 12.3452 45.354L12.3462 45.353C13.0536 34.3926 17.5608 23.6284 25.8696 15.1714L26.3052 14.7339C35.6777 5.43271 47.9622 0.781776 60.2466 0.781738Z" fill="#34D399"/>
<path d="M87.0386 37.7827C90.8341 37.7827 94.4803 38.4207 97.8774 39.5933C97.8927 39.5985 97.9081 39.6036 97.9233 39.6089C98.6624 39.8652 99.3897 40.1466 100.104 40.4526C100.119 40.4592 100.135 40.4665 100.15 40.4731C101.105 40.884 102.038 41.3371 102.944 41.8325C102.975 41.8495 103.006 41.8672 103.037 41.8843C103.924 42.3729 104.786 42.9003 105.622 43.4653C105.696 43.5157 105.769 43.5677 105.843 43.6187C106.313 43.9423 106.775 44.2777 107.227 44.6245C107.516 44.846 107.801 45.0716 108.083 45.3022C115.508 51.3924 120.247 60.638 120.247 70.9907L120.243 71.6841C120.062 86.2534 114.206 100.771 102.673 111.887L73.1636 140.332C74.4792 137.866 75.2465 134.998 75.2466 131.817V124.434L95.7329 104.687C105.296 95.469 110.087 83.5293 110.243 71.5913L110.247 70.9907C110.247 66.6717 109.065 62.6287 107.01 59.1655V59.1675C105.292 56.2708 102.962 53.7793 100.198 51.8726C100.182 51.8614 100.165 51.8505 100.149 51.8394C99.5141 51.4038 98.8565 50.9983 98.1782 50.6265C94.8715 48.8137 91.0756 47.7827 87.0386 47.7827L86.3218 47.7935C78.9369 48.0171 72.4187 51.6845 68.3101 57.2856L60.2466 68.2778L52.1831 57.2856C48.0745 51.6845 41.5563 48.0171 34.1714 47.7935L33.4546 47.7827C31.3051 47.7827 29.224 48.0756 27.2485 48.6226C27.226 45.0633 27.7892 41.5013 28.937 38.0894C30.4143 37.8884 31.9222 37.7827 33.4546 37.7827C44.4545 37.7828 54.2036 43.1325 60.2466 51.3706C66.2896 43.1325 76.0386 37.7828 87.0386 37.7827Z" fill="#34D399"/>
<path d="M97.4565 56.0571C100.975 58.5166 103.585 62.1875 104.679 66.4653C102.336 72.1528 98.8403 77.4832 94.188 82.1001L70.801 105.308C70.6357 105.079 70.4433 104.838 70.2349 104.63L63.7681 98.1987L87.144 75.0024C92.5751 69.6127 96.0105 62.9972 97.4565 56.0571Z" fill="#34D399"/>
</svg>
